<?xml version="1.0" encoding="utf-8"?>
<!-- Generator: Adobe Illustrator 24.0.0, SVG Export Plug-In . SVG Version: 6.00 Build 0)  -->
<svg version="1.1" xmlns="http://www.w3.org/2000/svg" xmlns:xlink="http://www.w3.org/1999/xlink" x="0px" y="0px"
	 viewBox="0 0 333.74 333.74" style="enable-background:new 0 0 333.74 333.74;" xml:space="preserve">
<style type="text/css">
	.st0{fill:none;stroke:#96D7FA;stroke-width:2.6121;stroke-linecap:round;stroke-linejoin:round;stroke-miterlimit:10;}
	.st1{fill:#FFFFFF;stroke:#96D7FA;stroke-width:3;stroke-linecap:round;stroke-linejoin:round;stroke-miterlimit:10;}
	.st2{fill:none;stroke:#96D7FA;stroke-width:3;stroke-linecap:round;stroke-linejoin:round;stroke-miterlimit:10;}
</style>
<g id="Layer_1">
	<ellipse class="st0" cx="167.43" cy="204.66" rx="51.06" ry="13.71"/>
	<path class="st1" d="M180.55,202.5L180.55,202.5c-7.15-5.6-5.61-17.8-5.61-17.8h-17.02c0,14.89-4.25,17.02-4.25,17.02l-1.36,0.78
		c-0.49,0.42-0.77,0.87-0.77,1.34c0,2.35,6.67,4.25,14.89,4.25c8.22,0,14.89-1.91,14.89-4.25
		C181.32,203.38,181.04,202.92,180.55,202.5z"/>
	<path class="st2" d="M151.05,173.94c0.89-0.39,2.11-0.73,3.59-1.03c6.84-3.47,5.4-13.74,5.4-13.74c6.38,4.25,12.76,0,12.76,0
		c0,10.64,7.45,13.83,7.45,13.83l1.84,1.06c0.87,0.42,1.35,0.88,1.35,1.37c0,1.93-7.62,3.5-17.02,3.5s-17.02-1.56-17.02-3.5
		c0-0.49,0.48-0.95,1.35-1.37L151.05,173.94z"/>
	<path class="st2" d="M185.28,146.86c-0.46,4.38-1.98,7.95-6.95,8.65c-5.63,0.79-9.17-1.28-12.41-7.48
		c-2.65,6.44-7.43,8.66-13.84,7.16c-3.28-0.77-4.76-3.27-5.54-8.51c-0.55,0.36-0.99,0.68-1.46,0.95c-1.58,0.93-3.07,2.17-4.78,2.72
		c-4.99,1.61-8.65-0.6-9.53-5.79c-1.26-7.43,1.45-13.97,5.25-20.06c9.37-14.99,30.82-20.08,47.28-11.37
		c10.39,5.5,16.02,14.35,17.92,25.73c0.31,1.87,0.19,3.91-0.17,5.78c-1.01,5.28-4.73,7.42-9.83,5.56
		C189.2,149.47,187.42,148.09,185.28,146.86z"/>
</g>
<g id="Layer_2">
</g>
</svg>
