<svg enable-background="new 0 0 333.74 333.74" viewBox="0 0 333.74 333.74" xmlns="http://www.w3.org/2000/svg"><g stroke="#96d7fa" stroke-linecap="round" stroke-linejoin="round" stroke-miterlimit="10"><ellipse cx="167.43" cy="204.66" fill="none" rx="51.06" ry="13.71" stroke-width="2.6121"/><g stroke-width="3"><path d="m180.55 202.5c-7.15-5.6-5.61-17.8-5.61-17.8h-17.02c0 14.89-4.25 17.02-4.25 17.02l-1.36.78c-.49.42-.77.87-.77 1.34 0 2.35 6.67 4.25 14.89 4.25s14.89-1.91 14.89-4.25c0-.46-.28-.92-.77-1.34z" fill="#fff"/><path d="m151.05 173.94c.89-.39 2.11-.73 3.59-1.03 6.84-3.47 5.4-13.74 5.4-13.74 6.38 4.25 12.76 0 12.76 0 0 10.64 7.45 13.83 7.45 13.83l1.84 1.06c.87.42 1.35.88 1.35 1.37 0 1.93-7.62 3.5-17.02 3.5s-17.02-1.56-17.02-3.5c0-.49.48-.95 1.35-1.37z" fill="none"/><path d="m185.28 146.86c-.46 4.38-1.98 7.95-6.95 8.65-5.63.79-9.17-1.28-12.41-7.48-2.65 6.44-7.43 8.66-13.84 7.16-3.28-.77-4.76-3.27-5.54-8.51-.55.36-.99.68-1.46.95-1.58.93-3.07 2.17-4.78 2.72-4.99 1.61-8.65-.6-9.53-5.79-1.26-7.43 1.45-13.97 5.25-20.06 9.37-14.99 30.82-20.08 47.28-11.37 10.39 5.5 16.02 14.35 17.92 25.73.31 1.87.19 3.91-.17 5.78-1.01 5.28-4.73 7.42-9.83 5.56-2.02-.73-3.8-2.11-5.94-3.34z" fill="none"/></g></g></svg>