<?xml version="1.0" encoding="utf-8"?>
<!-- Generator: Adobe Illustrator 24.0.0, SVG Export Plug-In . SVG Version: 6.00 Build 0)  -->
<svg version="1.1" id="Layer_1" xmlns="http://www.w3.org/2000/svg" xmlns:xlink="http://www.w3.org/1999/xlink" x="0px" y="0px"
	 viewBox="0 0 333.74 333.74" style="enable-background:new 0 0 333.74 333.74;" xml:space="preserve">
<style type="text/css">
	.st0{fill:none;stroke:#96D7FA;stroke-width:3;stroke-linecap:round;stroke-linejoin:round;stroke-miterlimit:10;}
</style>
<path class="st0" d="M150.26,181.44c11.05,0,21.79,0,32.76,0c0.05,0.65,0.14,1.29,0.14,1.94c0.01,6.56-0.05,13.11,0.04,19.67
	c0.03,1.91-0.76,3.15-2.19,4.22c-8.07,6.02-20.34,6.09-28.51,0.17c-1.59-1.15-2.43-2.49-2.4-4.58c0.12-6.32,0.04-12.65,0.05-18.98
	C150.16,183.13,150.22,182.39,150.26,181.44z"/>
<path class="st0" d="M154.27,175.62c0.21-4-0.01-8.06,0.74-11.95c1.11-5.76,6.79-9.36,12.91-8.82c5.74,0.5,10.42,5.11,10.77,10.87
	c0.2,3.25,0.04,6.52,0.04,9.97c-1.86,0-3.35,0-5.07,0"/>
<path class="st0" d="M142.47,200.95c-0.77-0.59-1.25-0.89-1.64-1.28c-7.59-7.62-9.82-16.62-9.65-27.58
	c0.16-10.44,0.03-20.88,0.03-31.32c0-0.82,0-1.64,0-2.7c6.88-0.05,13.4-0.91,19.64-3.32c6.31-2.44,11.8-5.99,15.71-11.81
	c8.85,11.72,21.44,14.73,35.37,15.2c0.06,0.8,0.18,1.6,0.17,2.4c-0.03,11.58,0.11,23.16-0.16,34.74
	c-0.24,10.43-3.53,18.6-11.33,26.04"/>
</svg>
