<?xml version="1.0" encoding="utf-8"?>
<!-- Generator: Adobe Illustrator 24.0.0, SVG Export Plug-In . SVG Version: 6.00 Build 0)  -->
<svg version="1.1" id="Layer_1" xmlns="http://www.w3.org/2000/svg" xmlns:xlink="http://www.w3.org/1999/xlink" x="0px" y="0px"
	 viewBox="0 0 333.74 333.74" style="enable-background:new 0 0 333.74 333.74;" xml:space="preserve">
<style type="text/css">
	.st0{fill:none;stroke:#96D7FA;stroke-width:3;stroke-linecap:round;stroke-linejoin:round;stroke-miterlimit:10;}
</style>
<path class="st0" d="M132.59,191.82c0,0-18.37,0.97-21.51-14.02c0,0-3.38-13.53,10.87-20.3c0,0-0.24-10.15,8.94-14.5
	c0,0,7.01-4.11,14.74,0.72c-0.45-0.28,6.93-7.2,7.43-7.56c6.01-4.37,13.36-5.96,20.55-3.78c11.75,3.57,19.72,15.89,16.73,28.01
	c0.19-0.75,6.19-0.1,6.72-0.02c4.56,0.7,8.67,3.05,11.1,7.05c3.62,5.96,3.09,12.85-1.05,18.36c-3.75,4.99-9.77,6.67-15.8,6.02"/>
<path class="st0" d="M174.52,125.91c2.97-3.97,7.11-7.11,12.19-7.51c12.18-0.95,22.79,11.38,19.87,23.25
	c0.15-0.6,4.97-0.08,5.39-0.01c3.66,0.56,6.95,2.44,8.9,5.65c4.62,7.61,1.53,18.34-7.34,19.62"/>
<line class="st0" x1="180.8" y1="183.48" x2="172.35" y2="197.98"/>
<line class="st0" x1="158.05" y1="200.48" x2="149.59" y2="214.98"/>
<line class="st0" x1="152.05" y1="183.48" x2="143.59" y2="197.98"/>
<line class="st0" x1="130.05" y1="200.48" x2="121.59" y2="214.98"/>
<line class="st0" x1="186.8" y1="200.48" x2="178.35" y2="214.98"/>
</svg>
