<svg width="58" height="21" viewBox="0 0 58 21" fill="none" xmlns="http://www.w3.org/2000/svg">
<mask id="path-1-outside-1_73_490" maskUnits="userSpaceOnUse" x="0.101562" y="-2.22928e-06" width="58" height="21" fill="black">
<rect fill="white" x="0.101562" y="-2.22928e-06" width="58" height="21"/>
<path fill-rule="evenodd" clip-rule="evenodd" d="M51.1016 19L29.0503 3L6.999 19L11.8996 19L29.0503 6.5558L46.2009 19L51.1016 19Z"/>
</mask>
<path fill-rule="evenodd" clip-rule="evenodd" d="M51.1016 19L29.0503 3L6.999 19L11.8996 19L29.0503 6.5558L46.2009 19L51.1016 19Z" fill="#0F1E55"/>
<path d="M29.0503 3L30.2248 1.38123L29.0503 0.528992L27.8757 1.38123L29.0503 3ZM51.1016 19L51.1016 21L57.2635 21L52.2761 17.3812L51.1016 19ZM6.999 19L5.82445 17.3812L0.837039 21L6.999 21L6.999 19ZM11.8996 19L11.8996 21L12.5488 21L13.0742 20.6188L11.8996 19ZM29.0503 6.5558L30.2248 4.93703L29.0503 4.0848L27.8757 4.93703L29.0503 6.5558ZM46.2009 19L45.0264 20.6188L45.5518 21L46.2009 21L46.2009 19ZM27.8757 4.61877L49.927 20.6188L52.2761 17.3812L30.2248 1.38123L27.8757 4.61877ZM8.17355 20.6188L30.2248 4.61877L27.8757 1.38123L5.82445 17.3812L8.17355 20.6188ZM11.8996 17L6.999 17L6.999 21L11.8996 21L11.8996 17ZM13.0742 20.6188L30.2248 8.17458L27.8757 4.93703L10.7251 17.3812L13.0742 20.6188ZM27.8757 8.17458L45.0264 20.6188L47.3755 17.3812L30.2248 4.93703L27.8757 8.17458ZM51.1016 17L46.2009 17L46.2009 21L51.1016 21L51.1016 17Z" fill="#0F1E55" mask="url(#path-1-outside-1_73_490)"/>
</svg>
